<?xml version="1.0" standalone="no"?>
<!DOCTYPE svg PUBLIC "-//W3C//DTD SVG 20010904//EN"
 "http://www.w3.org/TR/2001/REC-SVG-20010904/DTD/svg10.dtd">
<svg version="1.0" xmlns="http://www.w3.org/2000/svg"
 width="260.000000pt" height="260.000000pt" viewBox="0 0 260.000000 260.000000"
 preserveAspectRatio="xMidYMid meet">
<metadata>
Created by potrace 1.11, written by Peter Selinger 2001-2013
</metadata>
<g transform="translate(0.000000,260.000000) scale(0.100000,-0.100000)"
fill="#000000" stroke="none">
<path d="M100 2579 c-41 -25 -78 -65 -91 -97 -5 -13 -9 -525 -9 -1185 l0
-1162 21 -35 c25 -41 65 -78 97 -91 13 -5 525 -9 1185 -9 l1162 0 35 21 c41
25 78 65 91 97 5 13 9 525 9 1185 l0 1162 -21 35 c-25 41 -65 78 -97 91 -13 5
-525 9 -1185 9 l-1162 0 -35 -21z m2283 -172 c16 -10 37 -32 47 -50 19 -30 20
-52 20 -308 0 -270 0 -277 -23 -310 -47 -71 -27 -69 -654 -69 l-562 0 -16 30
c-18 35 -20 99 -3 135 l11 25 529 0 528 0 0 190 0 190 -955 0 -955 0 0 -190 0
-190 194 0 194 0 18 -46 c17 -44 16 -47 -2 -92 l-20 -47 -219 -3 c-131 -2
-234 1 -255 7 -20 6 -49 24 -65 41 l-30 31 -3 281 c-2 193 1 290 8 309 16 38
53 70 92 79 18 5 497 7 1063 7 975 -2 1032 -3 1058 -20z m-1365 -362 c20 -9
47 -26 59 -37 l23 -21 0 -799 0 -798 195 0 195 0 0 534 0 534 35 30 c59 52
129 54 193 6 l32 -25 0 -605 c0 -509 -2 -609 -14 -633 -22 -41 -81 -89 -118
-96 -18 -3 -175 -5 -350 -3 l-316 3 -38 30 c-80 65 -74 -6 -74 960 l0 861 29
28 c26 25 66 43 99 45 7 1 29 -6 50 -14z"/>
</g>
</svg>
